<?xml version="1.0" standalone="no"?>
<!DOCTYPE svg PUBLIC "-//W3C//DTD SVG 20010904//EN"
 "http://www.w3.org/TR/2001/REC-SVG-20010904/DTD/svg10.dtd">
<svg version="1.0" xmlns="http://www.w3.org/2000/svg"
 width="400.000000pt" height="400.000000pt" viewBox="0 0 400.000000 400.000000"
 preserveAspectRatio="xMidYMid meet">
<metadata>
Created by potrace 1.15, written by Peter Selinger 2001-2017
</metadata>
<g transform="translate(0.000000,400.000000) scale(0.100000,-0.100000)"
fill="#000000" stroke="none">
<path d="M2238 3689 c-3 -30 -7 -33 -163 -95 l-159 -64 -428 0 -428 0 -70 -35
c-38 -19 -83 -35 -100 -35 -28 0 -30 3 -30 35 0 32 -2 35 -29 35 -26 0 -30 -4
-33 -32 l-3 -33 -162 -3 -163 -2 0 35 0 35 -98 0 c-98 0 -98 0 -130 -33 -30
-31 -32 -38 -32 -103 0 -66 2 -72 32 -101 45 -42 150 -93 193 -93 l35 0 0 -68
c0 -49 8 -93 30 -157 29 -87 30 -93 30 -292 l0 -203 -128 0 -128 0 -32 -33
c-30 -30 -32 -38 -32 -100 l0 -67 60 -30 c54 -27 68 -30 160 -30 l100 0 0
-430 0 -430 -30 0 c-27 0 -30 -3 -30 -30 0 -28 -3 -30 -35 -30 -32 0 -35 -2
-35 -30 0 -41 54 -146 98 -192 l36 -38 98 0 98 0 0 33 c0 24 8 41 30 62 27 26
30 35 30 92 0 53 6 75 35 133 l35 70 0 425 0 425 63 0 c46 0 92 10 167 35 90
30 117 35 200 35 l96 0 34 35 c32 33 37 35 101 35 63 0 77 4 200 65 84 41 144
65 166 65 18 0 60 14 93 30 33 17 74 30 92 30 18 0 76 14 128 31 87 29 100 37
163 97 l67 66 0 67 0 67 -97 32 c-71 23 -108 42 -133 66 -23 22 -46 34 -63 34
-26 0 -27 -1 -27 -63 0 -60 -2 -65 -38 -100 -32 -32 -75 -51 -268 -123 -126
-47 -332 -122 -459 -165 l-230 -79 -127 0 -128 0 0 330 0 330 164 0 c133 0
207 6 403 35 362 52 593 92 741 127 l132 32 0 33 0 33 65 0 65 0 0 68 0 68
-63 62 c-50 50 -69 62 -94 62 -28 0 -32 -4 -35 -31z"/>
<path d="M2006 2244 l-149 -75 37 -38 c30 -30 36 -44 36 -79 l0 -42 203 0 204
0 389 -70 c214 -39 402 -73 418 -76 28 -6 27 -8 -90 -125 -110 -110 -121 -119
-157 -119 -30 0 -60 -15 -155 -78 -64 -43 -202 -129 -307 -192 -156 -92 -205
-128 -275 -195 -63 -61 -106 -94 -165 -123 -44 -22 -96 -57 -115 -77 -23 -24
-87 -63 -185 -112 -85 -42 -166 -91 -187 -111 -38 -36 -38 -37 -38 -117 l0
-80 78 -78 77 -77 153 0 152 0 0 -40 0 -40 383 0 383 0 119 40 119 40 313 0
314 0 119 80 c115 77 120 82 120 115 0 33 -2 35 -35 35 -21 0 -67 16 -115 40
l-80 40 -120 0 -120 0 -80 -40 -80 -40 -580 0 -580 0 0 43 1 42 157 116 c107
80 239 164 417 265 143 81 319 187 391 235 72 48 166 105 210 127 65 33 99 61
189 152 92 94 124 119 195 155 47 24 100 59 118 77 l33 35 -3 118 -3 118 -100
34 c-138 47 -574 112 -756 113 -106 0 -156 6 -324 40 -148 30 -222 40 -289 39
l-91 0 -149 -75z"/>
</g>
</svg>
